<?xml version="1.0" standalone="no"?>
<!DOCTYPE svg PUBLIC "-//W3C//DTD SVG 20010904//EN"
 "http://www.w3.org/TR/2001/REC-SVG-20010904/DTD/svg10.dtd">
<svg version="1.0" xmlns="http://www.w3.org/2000/svg"
 width="826.000000pt" height="333.000000pt" viewBox="0 0 826.000000 333.000000"
 preserveAspectRatio="xMidYMid meet">

<g transform="translate(0.000000,333.000000) scale(0.100000,-0.100000)"
fill="#000000" stroke="none">
<path d="M0 1665 l0 -1665 4130 0 4130 0 0 1665 0 1665 -4130 0 -4130 0 0
-1665z m8230 0 l0 -1635 -4100 0 -4100 0 0 1635 0 1635 4100 0 4100 0 0 -1635z"/>
<path d="M3883 2862 c-133 -47 -203 -155 -203 -311 0 -130 42 -238 131 -335
l52 -58 -35 7 c-82 15 -151 -54 -97 -98 19 -16 34 -18 84 -14 33 3 70 8 82 12
23 7 23 7 8 -29 -21 -50 -19 -54 21 -58 31 -3 38 -8 48 -39 7 -20 22 -50 34
-67 l22 -30 -207 -4 c-196 -3 -210 -4 -244 -26 -68 -42 -70 -53 -67 -401 3
-295 4 -311 24 -338 11 -15 38 -37 59 -47 38 -19 38 -19 109 4 98 31 263 110
345 164 38 25 98 77 133 115 99 104 122 196 74 296 -31 66 -78 123 -150 182
-55 45 -57 48 -35 54 20 5 21 7 7 13 -19 9 -63 71 -73 104 -6 21 -4 22 64 22
43 0 71 4 71 10 0 6 -9 28 -20 50 -11 22 -20 41 -20 44 0 3 19 -2 43 -10 61
-22 127 -22 143 1 35 47 0 105 -62 105 l-36 0 40 45 c109 124 160 319 116 448
-22 65 -92 140 -162 173 -76 37 -219 44 -299 16z m277 -43 c138 -64 196 -193
156 -349 -37 -144 -116 -251 -233 -313 -37 -20 -62 -37 -56 -37 7 0 24 -22 38
-50 l25 -50 -75 0 c-41 0 -75 4 -75 9 0 5 9 28 19 52 l20 43 -47 32 c-100 67
-179 174 -206 279 -51 195 23 350 194 406 50 17 181 4 240 -22z m100 -684 c32
-39 -26 -59 -101 -34 -53 18 -55 27 -8 37 65 15 95 14 109 -3z m-383 -16 l28
-11 -30 -14 c-35 -15 -103 -18 -124 -5 -12 8 -12 12 -2 25 16 19 86 21 128 5z"/>
<path d="M5263 2145 c-60 -26 -71 -101 -20 -139 35 -26 122 -28 160 -3 53 35
47 107 -13 138 -41 22 -83 24 -127 4z"/>
<path d="M5803 1836 c-138 -45 -233 -154 -264 -306 -6 -31 -9 -100 -7 -157 4
-93 8 -109 42 -177 49 -101 114 -159 208 -187 134 -41 291 -9 380 78 37 36 80
120 93 181 l7 32 -69 0 -69 0 -13 -46 c-32 -109 -138 -168 -256 -144 -70 15
-114 52 -146 122 -21 47 -24 68 -24 178 0 116 2 129 28 185 34 71 50 91 99
116 49 25 169 26 215 1 41 -22 81 -75 89 -119 l6 -33 70 0 70 0 -7 38 c-19
103 -80 183 -170 223 -62 28 -217 36 -282 15z"/>
<path d="M6715 1836 c-60 -19 -86 -34 -132 -79 l-43 -41 0 57 0 57 -70 0 -70
0 0 -570 0 -570 70 0 70 0 0 206 0 205 48 -40 c60 -51 117 -71 201 -71 212 0
343 139 366 390 20 220 -76 399 -242 450 -73 23 -139 25 -198 6z m161 -125
c95 -43 139 -150 132 -317 -5 -119 -31 -188 -89 -238 -112 -96 -284 -64 -349
65 -62 120 -38 359 43 448 55 59 180 80 263 42z"/>
<path d="M7534 1832 c-145 -51 -234 -172 -257 -353 -26 -208 55 -385 211 -457
49 -23 70 -27 152 -27 111 0 176 19 244 71 48 37 102 130 113 197 l6 37 -64 0
-64 0 -33 -70 c-27 -58 -40 -74 -79 -97 -64 -37 -158 -38 -223 -3 -37 21 -51
37 -80 95 -33 66 -35 74 -35 175 1 132 20 200 75 263 50 56 90 70 185 65 93
-4 120 -22 160 -106 l30 -62 63 0 c59 0 62 1 62 25 0 48 -42 138 -85 181 -78
77 -257 108 -381 66z"/>
<path d="M1050 1812 c-23 -11 -43 -33 -58 -62 -22 -44 -23 -50 -20 -340 3
-265 5 -299 21 -323 29 -45 75 -67 138 -67 l56 0 6 48 c3 26 9 57 12 69 5 16
2 23 -13 27 -35 12 -72 57 -72 89 0 22 12 41 45 75 41 40 45 49 45 92 0 38 5
53 27 74 35 35 85 56 135 56 47 0 75 -13 104 -46 18 -22 24 -23 48 -14 40 15
71 12 97 -9 22 -18 23 -18 58 3 28 16 53 21 107 21 63 0 80 -5 143 -37 l72
-37 -3 154 c-3 137 -5 157 -24 182 -46 63 -48 63 -489 63 -361 0 -403 -2 -435
-18z"/>
<path d="M4191 1764 c248 -241 151 -485 -281 -702 l-105 -52 315 2 c359 3 366
5 401 81 17 38 19 69 19 330 0 311 -3 329 -54 377 -27 24 -32 25 -196 28
l-169 3 70 -67z"/>
<path d="M5250 1420 l0 -410 75 0 75 0 0 410 0 410 -75 0 -75 0 0 -410z"/>
<path d="M1341 1498 c-77 -22 -108 -66 -77 -113 22 -33 20 -42 -8 -49 -35 -9
-98 -70 -90 -89 4 -12 38 -32 122 -74 2 0 -8 -18 -21 -40 -29 -44 -39 -83 -28
-101 6 -10 79 -12 344 -10 l335 3 27 25 c45 41 55 78 55 204 l0 115 -32 24
c-118 88 -231 94 -309 16 l-38 -38 -11 34 c-19 57 -34 62 -89 28 l-48 -30 -12
32 c-21 58 -62 80 -120 63z"/>
<path d="M2010 1396 c0 -10 14 -34 30 -53 39 -44 40 -87 2 -139 -27 -37 -27
-40 -10 -56 34 -34 19 -119 -30 -172 -42 -44 -98 -66 -173 -66 -65 0 -167 25
-218 54 -22 12 -28 11 -67 -17 -29 -20 -59 -31 -94 -35 -49 -4 -52 -3 -90 37
-29 31 -47 41 -70 41 -17 0 -39 5 -50 12 -10 7 -23 9 -27 4 -13 -13 37 -46 69
-46 20 0 37 -8 49 -24 48 -61 133 -69 217 -20 l43 25 67 -27 c117 -47 245 -44
323 9 78 52 122 166 85 221 -15 24 -15 27 9 62 41 60 30 117 -34 178 -26 25
-31 27 -31 12z"/>
<path d="M1523 870 c-24 -10 -43 -39 -43 -65 0 -30 46 -65 85 -65 40 0 85 36
85 68 0 49 -74 85 -127 62z m95 -37 c16 -23 15 -30 -8 -53 -24 -24 -57 -26
-88 -4 -28 20 -28 48 1 69 26 19 76 13 95 -12z"/>
<path d="M2275 810 c-4 -7 -3 -16 3 -22 14 -14 45 -2 40 15 -6 16 -34 21 -43
7z"/>
<path d="M3000 801 c-5 -11 -10 -26 -10 -35 0 -8 -6 -17 -12 -20 -10 -5 -10
-7 0 -12 8 -4 12 -30 12 -80 0 -59 3 -74 15 -74 12 0 15 15 15 75 0 60 3 75
15 75 8 0 15 5 15 10 0 6 -7 10 -15 10 -8 0 -15 7 -15 15 0 9 7 18 15 21 8 4
15 12 15 20 0 21 -38 17 -50 -5z"/>
<path d="M3770 779 c0 -37 -2 -40 -22 -33 -38 12 -62 6 -87 -22 -19 -23 -22
-35 -18 -73 6 -57 37 -86 82 -77 16 4 40 7 53 6 22 0 22 2 22 120 0 100 -3
120 -15 120 -11 0 -15 -11 -15 -41z m-18 -66 c38 -35 16 -113 -32 -113 -47 0
-67 61 -34 108 18 26 41 28 66 5z"/>
<path d="M4122 803 c4 -20 18 -26 37 -14 18 12 5 31 -20 31 -14 0 -19 -6 -17
-17z"/>
<path d="M1346 789 c-33 -26 -34 -63 -1 -85 50 -33 131 17 105 65 -23 43 -64
51 -104 20z m79 -19 c14 -16 15 -22 5 -34 -28 -35 -90 -25 -90 14 0 39 56 52
85 20z"/>
<path d="M4040 775 c0 -16 -6 -25 -15 -25 -8 0 -15 -4 -15 -10 0 -5 7 -10 15
-10 12 0 15 -15 15 -74 0 -56 4 -75 15 -80 18 -6 45 2 45 15 0 5 -7 9 -15 9
-12 0 -15 14 -15 65 0 51 3 65 15 65 8 0 15 5 15 10 0 6 -7 10 -15 10 -9 0
-15 9 -15 25 0 16 -6 25 -15 25 -9 0 -15 -9 -15 -25z"/>
<path d="M2270 665 c0 -95 0 -95 25 -95 25 0 25 0 25 95 0 95 0 95 -25 95 -25
0 -25 0 -25 -95z"/>
<path d="M2370 732 c-76 -76 -4 -197 89 -149 29 15 48 57 26 57 -8 0 -19 -9
-25 -20 -14 -27 -65 -27 -80 -1 -24 47 2 111 45 111 14 0 29 -9 35 -20 13 -25
30 -26 30 -1 0 24 -19 39 -58 47 -26 5 -36 1 -62 -24z"/>
<path d="M2597 753 c-4 -3 -20 -6 -37 -5 l-30 1 0 -120 c0 -99 3 -119 15 -119
11 0 15 11 15 40 0 38 1 40 21 30 68 -37 134 53 98 133 -15 32 -66 57 -82 40z
m47 -45 c9 -12 16 -32 16 -43 0 -50 -57 -84 -88 -53 -16 16 -16 90 0 106 19
19 55 14 72 -10z"/>
<path d="M2760 747 c-78 -40 -50 -177 37 -177 24 0 73 40 73 60 0 17 -25 11
-38 -10 -14 -22 -51 -27 -70 -8 -16 16 -16 90 0 106 19 19 56 14 70 -8 14 -22
38 -27 38 -7 0 18 -12 32 -37 46 -28 14 -42 14 -73 -2z"/>
<path d="M3115 749 c-34 -19 -45 -41 -45 -86 0 -33 6 -50 25 -68 55 -56 135
-15 135 68 0 28 -7 53 -17 66 -22 25 -71 35 -98 20z m75 -38 c26 -49 4 -111
-38 -111 -37 0 -52 17 -52 58 0 49 16 72 50 72 19 0 33 -7 40 -19z"/>
<path d="M3520 750 c-8 -5 -25 -7 -37 -3 -23 5 -23 3 -23 -81 0 -70 3 -86 15
-86 12 0 15 13 15 59 0 66 17 94 54 89 19 -3 21 -10 24 -75 3 -65 5 -73 22
-73 17 0 20 7 20 48 0 71 -16 119 -43 126 -28 7 -29 7 -47 -4z"/>
<path d="M3879 749 c-29 -11 -47 -49 -24 -49 8 0 18 7 23 16 13 24 67 15 67
-11 0 -14 -8 -21 -25 -23 -44 -5 -78 -23 -84 -44 -12 -48 41 -82 91 -59 18 8
29 9 37 1 15 -15 36 -12 36 5 0 8 -4 15 -10 15 -6 0 -10 30 -10 69 0 68 0 69
-31 80 -37 13 -35 13 -70 0z m71 -107 c0 -26 -20 -42 -52 -42 -23 0 -28 4 -28
24 0 25 13 33 58 35 15 1 22 -5 22 -17z"/>
<path d="M4120 665 c0 -88 1 -95 20 -95 19 0 20 7 20 95 0 88 -1 95 -20 95
-19 0 -20 -7 -20 -95z"/>
<path d="M4245 750 c-84 -33 -59 -180 30 -180 76 0 112 104 56 161 -30 30 -50
34 -86 19z m69 -42 c19 -27 20 -48 4 -83 -9 -19 -19 -25 -43 -25 -27 0 -35 5
-45 29 -12 29 -7 64 12 89 16 19 55 14 72 -10z"/>
<path d="M4448 746 c-16 -8 -28 -11 -28 -5 0 5 -4 9 -10 9 -6 0 -10 -35 -10
-85 0 -69 3 -85 15 -85 12 0 15 14 15 65 0 60 2 66 24 77 45 20 56 6 56 -72 0
-56 3 -70 15 -70 12 0 15 15 15 74 0 66 -3 77 -22 90 -28 20 -36 20 -70 2z"/>
<path d="M1186 737 c-24 -18 -17 -48 17 -67 24 -13 30 -13 54 0 52 29 34 80
-27 80 -14 0 -34 -6 -44 -13z m81 -23 c10 -27 -35 -44 -66 -25 -23 15 -5 41
29 41 19 0 33 -6 37 -16z"/>
<path d="M3270 675 c0 -68 2 -76 25 -91 17 -11 33 -14 52 -9 16 5 36 7 46 6
15 -2 17 8 17 83 0 70 -3 86 -15 86 -12 0 -15 -14 -15 -64 0 -70 -12 -90 -52
-84 -21 3 -23 8 -26 76 -2 55 -6 72 -17 72 -12 0 -15 -16 -15 -75z"/>
<path d="M1057 703 c-14 -13 -6 -43 14 -54 42 -22 88 18 57 49 -13 13 -60 16
-71 5z m47 -9 c25 -10 19 -34 -9 -34 -24 0 -34 18 -18 33 8 8 8 8 27 1z"/>
<path d="M2900 596 c0 -11 9 -16 26 -16 31 0 28 23 -4 28 -15 2 -22 -2 -22
-12z"/>
</g>
</svg>
